# xmcd
#
# Track frame offsets:
#	150
#	13201
#	23444
#	34403
#	45528
#	56244
#	67103
#	79577
#	92091
#	107441
#	117272
#	130111
#	141751
#
# Disc length: 2068 seconds
# Revision: 1
# Processed by: cddbd v1.5.2PL0 Copyright (c) Steve Scherf et al.
# Submitted via: dBpowerAMP V12.0
#
DISCID=ab08120d
DTITLE=Howlin' Wolf - The Poet Of The Blues disc 02 Howlin' Wolf
DYEAR=2011
DGENRE=Blues
TTITLE0=Evil
TTITLE1=Shake For Me
TTITLE2=The Red Rooster
TTITLE3=You'll Be Mine
TTITLE4=Who's Been Talkin'
TTITLE5=Wang-Dang-Doodle
TTITLE6=Little Baby
TTITLE7=Spoonful
TTITLE8=Going Down Slow
TTITLE9=Down in the Bottom
TTITLE10=Back Door Man
TTITLE11=Howlin' for My Baby
TTITLE12=Tell Me
EXTD=
EXTT0=
EXTT1=
EXTT2=
EXTT3=
EXTT4=
EXTT5=
EXTT6=
EXTT7=
EXTT8=
EXTT9=
EXTT10=
EXTT11=
EXTT12=
PLAYORDER=
